<svg width="172" height="34" viewBox="0 0 172 34" fill="none" xmlns="http://www.w3.org/2000/svg">
    <path fill-rule="evenodd" clip-rule="evenodd" d="M23.87 9.631h-1.376L23.68 8.43c.27-.267.405-.606.405-1.015 0-.41-.134-.748-.405-1.015-.269-.266-.61-.4-1.024-.4-.413 0-.763.133-1.051.4l-3.451 3.231h-4.126l-3.477-3.23C10.28 6.133 9.94 6 9.527 6c-.414 0-.756.133-1.025.4-.27.267-.404.605-.404 1.016 0 .408.134.747.404 1.014l1.186 1.201H8.313c-1.24.036-2.26.454-3.06 1.255-.8.801-1.217 1.807-1.253 3.017v9.238c.036 1.318.454 2.381 1.253 3.191.8.81 1.82 1.232 3.06 1.268h15.368c1.24-.036 2.265-.45 3.074-1.241.809-.792 1.222-1.802 1.24-3.031v-9.425c.054-1.21-.31-2.216-1.092-3.017-.782-.8-1.793-1.219-3.034-1.255zm1.212 13.51a1.607 1.607 0 0 1-.471 1.095 1.47 1.47 0 0 1-1.093.454H8.502c-.432 0-.8-.151-1.106-.454a1.485 1.485 0 0 1-.458-1.094v-9.053c.018-.445.171-.81.458-1.094.288-.285.656-.436 1.106-.454h15.016c.45.018.818.169 1.106.454.288.284.44.65.458 1.094v9.052zm-13.48-7.529a1.587 1.587 0 0 0-1.092.467 1.56 1.56 0 0 0-.471 1.082v1.548c.018.427.17.787.458 1.081.288.294.656.44 1.105.44.45 0 .818-.146 1.106-.44.288-.294.44-.654.458-1.081V17.16a1.557 1.557 0 0 0-.472-1.082 1.593 1.593 0 0 0-1.092-.467zm8.978 0a1.588 1.588 0 0 0-1.092.467 1.56 1.56 0 0 0-.472 1.082v1.548c.018.427.171.787.458 1.081.288.294.657.44 1.106.44.45 0 .818-.146 1.105-.44.288-.294.441-.654.459-1.081V17.16a1.56 1.56 0 0 0-.472-1.082 1.593 1.593 0 0 0-1.092-.467z" fill="#fff"/>
    <path d="M46 23V9h-2V7h12v2h2v6h-2v2h2v6h-2v2H44v-2h2zm4 0h4v-6h-4v6zm0-8h4V9h-4v6zm22 10h-8v-2h2v-8h-2v-2h6v10h2v2zM66 7h4v4h-4V7zm22 18h-8v-2h2V9h-2V7h6v16h2v2zm16 0h-8v-2h2v-8h-2v-2h6v10h2v2zM98 7h4v4h-4V7zm14 16v2h-4v-2h2V9h-2V7h6v6h4v2h2v2h2v6h-2v2h-6v-2h-2zm2 0h4v-6h-2v-2h-2v8zm22 2h-8v-2h2v-8h-2v-2h6v10h2v2zm-6-18h4v4h-4V7zm22 18h-8v-2h2V9h-2V7h6v16h2v2zm16 0h-8v-2h2v-8h-2v-2h6v10h2v2zm-6-18h4v4h-4V7z" fill="#fff"/>
</svg>
