<svg width="32" height="32" viewBox="0 0 32 32" fill="none" xmlns="http://www.w3.org/2000/svg">
    <path fill-rule="evenodd" clip-rule="evenodd" d="M21.797 15.387c.057.023.117.047.178.077a3.577 3.577 0 0 1 2.995 3.47c0 2.994-4.257 6.779-10.88 6.779C9.047 25.713 4 23.19 4 19.248c0-2.049 1.419-4.572 3.626-6.779 2.996-3.154 6.62-4.417 7.884-3.154.574.86.574 1.98 0 2.838-.158.63.63.315.63.315 2.366-1.104 4.573-1.104 5.361 0 .474.63.315 1.42 0 2.366-.127.382.055.456.296.553zM6.365 20.036c.315 2.68 3.784 4.573 7.726 4.1 3.942-.473 6.938-2.837 6.778-5.362-.316-2.68-3.784-4.572-7.726-4.099-4.098.315-7.093 2.833-6.778 5.36z" fill="#fff"/>
    <path d="M26.39 8.054a6.442 6.442 0 0 0-6.149-1.892 1.186 1.186 0 0 0-.788 1.104c.23.472.748.73 1.264.63a4.388 4.388 0 0 1 4.257 1.42 4.607 4.607 0 0 1 .945 4.414.9.9 0 0 0 1.735.474 6.09 6.09 0 0 0-1.264-6.15" fill="#fff"/>
    <path d="M24.026 10.26a3.486 3.486 0 0 0-2.995-.945.804.804 0 1 0 .314 1.576 1.272 1.272 0 0 1 1.42.474c.324.395.442.922.315 1.418a.748.748 0 0 0 1.419.474 2.69 2.69 0 0 0-.473-2.996" fill="#fff"/>
    <path fill-rule="evenodd" clip-rule="evenodd" d="M14.407 16.567a4.443 4.443 0 0 0-4.887 2.207 3.04 3.04 0 0 0 1.892 4.257 4.31 4.31 0 0 0 5.203-2.207 3.053 3.053 0 0 0-2.208-4.257zm-1.418 4.416a1.516 1.516 0 0 1-1.892.63 1.093 1.093 0 0 1-.474-1.576 1.494 1.494 0 0 1 1.735-.63 1.055 1.055 0 0 1 .63 1.576zm.632-1.262a.63.63 0 0 0 .631-.315l-.002-.001c.156-.313.001-.47-.153-.627l-.002-.003c-.237.04-.457.15-.631.315-.157.316-.157.474.157.631z" fill="#fff"/>
</svg>
