<svg width="272" height="127" viewBox="0 0 272 127" fill="none" xmlns="http://www.w3.org/2000/svg">
    <path fill-rule="evenodd" clip-rule="evenodd" d="M6 6h260v91h-28v18h-6v-6h-6v-6h-6v-6H6V6z" fill="#fff"/>
    <path fill="#ECECEC" d="M12 46H6v45h6zM18 70h-6v27h6zM260 91h-22v6h22zM220 91H18v6h202z"/>
    <path fill="#000" d="M266 6h-6v6h6zM12 6H6v6h6zM266 91h-6v6h6zM12 91H6v6h6zM238 115h-6v6h6zM232 109h-6v6h6zM226 103h-6v6h6zM272 12h-6v79h6zM6 12H0v79h6zM260 97h-22v6h22zM220 97H12v6h208zM244 103h-6v24h6zM260 0H12v6h248z"/>
</svg>
