<svg width="304" height="140" viewBox="0 0 304 140" fill="none" xmlns="http://www.w3.org/2000/svg">
    <path fill-rule="evenodd" clip-rule="evenodd" d="M298 6H6v104h230v18h6v-6h6v-6h6v-6h44V6z" fill="#fff"/>
    <path fill="#ECECEC" d="M292 59h6v45h-6zM286 83h6v27h-6zM12 104h224v6H12z"/>
    <path fill="#ECECEC" d="M260 104h32v6h-32z"/>
    <path fill="#000" d="M6 6h6v6H6zM292 6h6v6h-6zM6 104h6v6H6zM292 104h6v6h-6zM236 128h6v6h-6zM242 122h6v6h-6zM248 116h6v6h-6zM0 12h6v92H0zM298 12h6v92h-6zM12 110h224v6H12zM254 110h38v6h-38zM230 116h6v24h-6zM12 0h280v6H12z"/>
</svg>
