<svg width="329" height="166" viewBox="0 0 329 166" fill="none" xmlns="http://www.w3.org/2000/svg">
    <path fill-rule="evenodd" clip-rule="evenodd" d="M323 6H6v130h245v18h6v-6h6v-6h6v-6h54V6z" fill="#fff"/>
    <path fill="#ECECEC" d="M317 85h6v45h-6zM311 109h6v27h-6zM12 130h239v6H12zM269 130h42v6h-42z"/>
    <path fill="#000" d="M6 6h6v6H6zM317 6h6v6h-6zM6 130h6v6H6zM317 130h6v6h-6zM251 154h6v6h-6zM257 148h6v6h-6zM263 142h6v6h-6zM0 12h6v118H0zM323 12h6v118h-6zM12 136h239v6H12zM269 136h48v6h-48zM245 142h6v24h-6zM12 0h305v6H12z"/>
</svg>
