<svg width="80" height="80" viewBox="0 0 80 80" fill="none" xmlns="http://www.w3.org/2000/svg">
    <path fill-rule="evenodd" clip-rule="evenodd" d="M25 0h28v5h10v5h6v6h6v10h5v28h-5v10h-6v6h-6v5H53v5H25v-5H15v-5H9v-6H5V54H0V26h5V16h4v-6h6V5h10V0z" fill="#fff"/>
    <path d="M54.047 31.94c-2.448 1.428-3.953 3.946-3.99 6.672.004 3.086 1.949 5.87 4.943 7.072a17.274 17.274 0 0 1-2.571 4.97c-1.516 2.15-3.103 4.25-5.623 4.29-2.449.054-3.273-1.369-6.08-1.369-2.836 0-3.713 1.33-6.062 1.423-2.4.084-4.234-2.296-5.805-4.427-3.137-4.349-5.578-12.258-2.304-17.64 1.538-2.623 4.414-4.287 7.575-4.384 2.401-.047 4.632 1.54 6.11 1.54 1.449 0 4.205-1.898 7.048-1.616 2.703.08 5.207 1.365 6.76 3.468zM47.318 20c.164 2.032-.512 4.045-1.887 5.61-1.333 1.574-3.354 2.481-5.48 2.461-.136-1.974.56-3.918 1.935-5.403 1.393-1.505 3.332-2.458 5.432-2.668z" fill="#000"/>
</svg>
