<svg width="172" height="34" viewBox="0 0 172 34" fill="none" xmlns="http://www.w3.org/2000/svg">
    <path d="M19.01 9.652H21V6.154A26.616 26.616 0 0 0 18.1 6c-2.88 0-4.85 1.826-4.85 5.17v2.882H10v3.916h3.25V28h3.896V17.968h3.24l.487-3.916h-3.727v-2.497c0-1.155.297-1.903 1.864-1.903zM52 25h-8v-2h2V9h-2V7h14v6h-2v-2h-2V9h-4v6h2v-2h2v6h-2v-2h-2v6h2v2zm22 0h-4v-2h-2v-4h-4v4h4v2h-6v-2h-2v-4h2v-2h6v-2h-6v-2h8v2h2v8h2v2zm16-2h-2v2H78v-2h-2v-8h2v-2h10v2h2v2h-4v-2h-6v8h6v-2h4v2zm16 0h-2v2H94v-2h-2v-8h2v-2h10v2h2v4H96v4h6v-2h4v2zm-10-6h6v-2h-6v2zm16 6v2h-4v-2h2V9h-2V7h6v6h4v2h2v2h2v6h-2v2h-6v-2h-2zm2 0h4v-6h-2v-2h-2v8zm12 0h-2v-8h2v-2h10v2h2v8h-2v2h-10v-2zm2 0h6v-8h-6v8zm14 0h-2v-8h2v-2h10v2h2v8h-2v2h-10v-2zm2 0h6v-8h-6v8zm26-8h-2v2h-2v2h2v2h2v4h-4v-4h-2v-2h-2v6h-6v-2h2V9h-2V7h6v10h2v-2h2v-2h4v2z" fill="#fff"/>
</svg>
