<svg width="156" height="34" viewBox="0 0 156 34" fill="none" xmlns="http://www.w3.org/2000/svg">
    <path fill-rule="evenodd" clip-rule="evenodd" d="M16.242 8c1.301.005 7.464.054 9.135.507a3.023 3.023 0 0 1 2.121 2.147c.467 1.76.5 5.292.502 5.788v.116c-.002.496-.035 4.029-.5 5.788a3.023 3.023 0 0 1-2.123 2.146c-1.704.463-8.082.504-9.206.508h-.341c-1.125-.004-7.502-.046-9.206-.507a3.025 3.025 0 0 1-2.122-2.147c-.454-1.714-.497-5.112-.502-5.744v-.204c.004-.632.047-4.03.5-5.744a3.023 3.023 0 0 1 2.122-2.146c1.672-.454 7.834-.503 9.135-.508h.485zM13.6 12.857v7.286l6.235-3.643-6.235-3.643z" fill="#fff"/>
    <path d="M56 25h-8v-2h2v-8h-2v-2h-2v-2h-2V7h4v4h2v2h4v-2h2V7h4v4h-2v2h-2v2h-2v8h2v2zm6-2h-2v-8h2v-2h10v2h2v8h-2v2H62v-2zm2 0h6v-8h-6v8zm26 2h-4v-2h-2v2h-6v-2h-2V13h4v10h4V13h4v10h2v2zm16-2h-2v2h-6v-2h-2v-8h-4v-2h4V9h2V7h2v6h4v2h-4v8h2v-2h4v2zm16 2h-4v-2h-2v2h-6v-2h-2V13h4v10h4V13h4v10h2v2zm6-2v2h-4v-2h2V9h-2V7h6v6h4v2h2v2h2v6h-2v2h-6v-2h-2zm2 0h4v-6h-2v-2h-2v8zm24 0h-2v2h-10v-2h-2v-8h2v-2h10v2h2v4h-10v4h6v-2h4v2zm-10-6h6v-2h-6v2z" fill="#fff"/>
</svg>
