<svg width="190" height="34" viewBox="0 0 190 34" fill="none" xmlns="http://www.w3.org/2000/svg">
    <g filter="url(#lphfeoswma)">
        <path d="M10 20H8v-4h4v4h6v-4h-2v-2h-4v-2h-2v-2H8V6h2V4h10v2h2v4h-4V6h-6v4h2v2h4v2h2v2h2v4h-2v2H10v-2zm28 0h-2v2H26v-2h-2v-8h2v-2h10v2h2v2h-4v-2h-6v8h6v-2h4v2zm10 2h-8v-2h2v-8h-2v-2h4v2h2v-2h6v2h2v4h-4v-4h-2v2h-2v6h2v2zm10-2h-2v-8h2v-2h10v2h2v8h-2v2H58v-2zm2 0h6v-8h-6v8zm24 2h-8v-2h2V6h-2V4h6v16h2v2zm16 0h-8v-2h2V6h-2V4h6v16h2v2zm22-2V6h-2V4h10v2h2v2h2v10h-2v2h-2v2h-10v-2h2zm4 0h2v-2h2V8h-2V6h-2v14zm12 0h-2v-8h2v-2h10v2h2v8h-2v2h-10v-2zm2 0h6v-8h-6v8zm14 0h-2V10h4v8h2v-2h2v2h2v-8h4v10h-2v2h-4v-2h-2v2h-4v-2zm16-8h-2v-2h4v2h2v10h-4V12zm8 0h-4v-2h6v2h2v10h-4V12z" fill="#fff"/>
    </g>
    <defs>
        <filter id="lphfeoswma" x="0" y="0" width="190" height="34" filterUnits="userSpaceOnUse" color-interpolation-filters="sRGB">
            <feFlood flood-opacity="0" result="BackgroundImageFix"/>
            <feColorMatrix in="SourceAlpha" values="0 0 0 0 0 0 0 0 0 0 0 0 0 0 0 0 0 0 127 0" result="hardAlpha"/>
            <feOffset dy="4"/>
            <feGaussianBlur stdDeviation="4"/>
            <feComposite in2="hardAlpha" operator="out"/>
            <feColorMatrix values="0 0 0 0 0 0 0 0 0 0 0 0 0 0 0 0 0 0 0.25 0"/>
            <feBlend in2="BackgroundImageFix" result="effect1_dropShadow_205_289"/>
            <feBlend in="SourceGraphic" in2="effect1_dropShadow_205_289" result="shape"/>
        </filter>
    </defs>
</svg>
