<svg width="220" height="66" viewBox="0 0 220 66" fill="none" xmlns="http://www.w3.org/2000/svg">
    <rect x=".5" y=".5" width="219" height="65" rx="7.5" fill="#000" stroke="#A6A6A6"/>
    <path d="M110.766 36.62c-3.505.016-6.336 2.82-6.324 6.268.011 3.446 2.858 6.233 6.363 6.229 3.505-.005 6.344-2.801 6.344-6.249a6.112 6.112 0 0 0-1.843-4.455 6.32 6.32 0 0 0-4.54-1.793zm0 10.041c-1.58.11-3.068-.743-3.75-2.148a3.743 3.743 0 0 1 .656-4.219 3.904 3.904 0 0 1 4.231-.948 3.796 3.796 0 0 1 2.451 3.522 3.578 3.578 0 0 1-.981 2.64 3.702 3.702 0 0 1-2.607 1.153zm-13.92-10.04c-3.506.008-6.343 2.808-6.338 6.257.005 3.449 2.852 6.24 6.359 6.239 3.507-.003 6.349-2.8 6.349-6.249a6.113 6.113 0 0 0-1.844-4.455 6.32 6.32 0 0 0-4.54-1.793h.015zm0 10.04a3.867 3.867 0 0 1-3.76-2.138 3.746 3.746 0 0 1 .647-4.223 3.904 3.904 0 0 1 4.233-.955 3.796 3.796 0 0 1 2.454 3.523 3.576 3.576 0 0 1-.98 2.64 3.703 3.703 0 0 1-2.608 1.153h.015zm-16.58-8.115v2.646h6.46a5.498 5.498 0 0 1-1.496 3.338 6.668 6.668 0 0 1-4.978 1.94c-3.963 0-7.177-3.16-7.177-7.056 0-3.898 3.214-7.057 7.177-7.057a6.94 6.94 0 0 1 4.889 1.896l1.898-1.867a9.484 9.484 0 0 0-6.772-2.749c-3.62-.138-7.027 1.68-8.879 4.742a9.582 9.582 0 0 0 0 9.936c1.852 3.062 5.258 4.881 8.879 4.743a9.052 9.052 0 0 0 6.892-2.72 8.739 8.739 0 0 0 2.332-6.204 8.448 8.448 0 0 0-.15-1.661l-9.074.073zm67.741 2.058c-.797-2.309-2.962-3.894-5.442-3.984a6.026 6.026 0 0 0-4.366 1.85 5.82 5.82 0 0 0-1.614 4.398 6.06 6.06 0 0 0 1.804 4.443 6.275 6.275 0 0 0 4.505 1.806 6.353 6.353 0 0 0 5.293-2.764l-2.168-1.47a3.647 3.647 0 0 1-3.125 1.734 3.236 3.236 0 0 1-3.08-1.896l8.507-3.455-.314-.662zm-8.671 2.088a3.39 3.39 0 0 1 .881-2.51 3.501 3.501 0 0 1 2.438-1.136 2.476 2.476 0 0 1 2.362 1.323l-5.681 2.323zm-6.907 6.057h2.796V30.372h-2.796V48.75zm-4.575-10.732h-.105a4.518 4.518 0 0 0-3.349-1.47c-3.393.161-6.059 2.914-6.059 6.255 0 3.341 2.666 6.094 6.059 6.256a4.365 4.365 0 0 0 3.349-1.47h.09v.896c0 2.397-1.301 3.676-3.394 3.676-1.425-.033-2.691-.91-3.199-2.22l-2.437 1c.938 2.244 3.168 3.704 5.636 3.69 3.274 0 5.98-1.897 5.98-6.513v-11.13h-2.571v1.03zm-3.199 8.644c-2-.172-3.532-1.819-3.532-3.793 0-1.972 1.532-3.62 3.532-3.793a3.61 3.61 0 0 1 2.51 1.194c.638.714.957 1.651.883 2.6a3.456 3.456 0 0 1-.879 2.612 3.58 3.58 0 0 1-2.529 1.18h.015zm36.449-16.289h-6.683V48.75h2.796V41.78h3.902c2.171.154 4.248-.899 5.382-2.727a5.636 5.636 0 0 0 0-5.954c-1.134-1.828-3.211-2.88-5.382-2.727h-.015zm0 8.821h-3.902V32.93h3.962c1.771 0 3.207 1.412 3.207 3.154s-1.436 3.153-3.207 3.153l-.06-.044zm17.238-2.646c-2.081-.123-4.037.98-4.979 2.808l2.482 1.014a2.655 2.655 0 0 1 2.542-1.352 2.725 2.725 0 0 1 1.999.567c.562.444.92 1.093.991 1.8v.19a6.242 6.242 0 0 0-2.916-.705c-2.676 0-5.382 1.47-5.382 4.131a4.225 4.225 0 0 0 1.449 2.984 4.369 4.369 0 0 0 3.186 1.059 3.954 3.954 0 0 0 3.588-1.764h.09v1.47h2.691v-7.072c0-3.22-2.482-5.086-5.666-5.086l-.075-.044zm-.344 10.07c-.912 0-2.183-.456-2.183-1.558 0-1.47 1.585-1.955 2.99-1.955a5.02 5.02 0 0 1 2.542.617c-.193 1.645-1.59 2.9-3.274 2.94l-.075-.044zm15.892-9.63-3.199 7.969h-.09l-3.319-7.968h-2.99l4.979 11.144-2.841 6.189h2.915L197 36.988h-3.11zM168.759 48.75h2.795V30.372h-2.795V48.75z" fill="#fff"/>
    <path d="M80.067 19.024a4.485 4.485 0 0 1-1.12 3.185c-.855.95-2.05 1.464-3.283 1.418-1.891-.016-3.59-1.241-4.31-3.107-.72-1.868-.321-4.014 1.012-5.446.867-.944 2.06-1.463 3.298-1.434a4.362 4.362 0 0 1 1.836.398 3.7 3.7 0 0 1 1.403 1.068l-.791.844c-.605-.767-1.511-1.185-2.448-1.131a3.354 3.354 0 0 0-2.5 1.121 3.833 3.833 0 0 0-.977 2.702c-.02 1.518.818 2.9 2.124 3.503 1.306.602 2.823.307 3.845-.748.46-.531.724-1.221.746-1.943h-3.238v-1.147h4.343c.04.236.06.477.06.717zm6.834-3.982h-4.029v3.026h3.671v1.147h-3.67v3.026H86.9v1.179h-5.223v-9.557h5.223v1.179zm4.895 8.378h-1.149v-8.378H88.14v-1.179h6.223v1.179h-2.567v8.378zm6.954 0v-9.557h1.15v9.557h-1.15zm6.253 0h-1.149v-8.378h-2.507v-1.179h6.149v1.179h-2.493v8.378zm14.148-1.243c-1.816 1.928-4.751 1.928-6.567 0-1.761-1.99-1.761-5.098 0-7.087.868-.935 2.051-1.46 3.284-1.46 1.232 0 2.415.525 3.283 1.46 1.768 1.985 1.768 5.102 0 7.087zm-5.716-.796c1.346 1.43 3.519 1.43 4.865 0 1.321-1.554 1.321-3.925 0-5.479-1.346-1.43-3.519-1.43-4.865 0-1.321 1.554-1.321 3.925 0 5.479zm8.656 2.039v-9.557h1.402l4.358 7.438v-7.438H129v9.557h-1.194l-4.551-7.789v7.789h-1.164z" fill="#fff" stroke="#fff" stroke-width=".5"/>
    <path d="M21.252 15.667a2.671 2.671 0 0 0-.614 1.87v29.55c-.042.68.178 1.348.614 1.871l.094.094 16.552-16.539v-.387L21.346 15.574l-.094.093z" fill="url(#45jxjuz63a)"/>
    <path d="m43.376 38.03-5.478-5.517v-.387l5.478-5.53.12.066 6.56 3.727c1.87 1.055 1.87 2.792 0 3.86l-6.533 3.715-.147.066z" fill="url(#f4uwifoecb)"/>
    <path d="m43.537 37.95-5.638-5.637-16.645 16.645a2.178 2.178 0 0 0 2.779.08L43.55 37.95" fill="url(#c60tp23lqc)"/>
    <path d="M43.535 26.675 24.017 15.587a2.177 2.177 0 0 0-2.779.08l16.659 16.646 5.638-5.638z" fill="url(#zr384lol2d)"/>
    <path opacity=".2" d="M43.376 37.83 24.02 48.851a2.23 2.23 0 0 1-2.672 0l-.093.094.093.093c.79.597 1.882.597 2.672 0L43.537 37.95l-.16-.12z" fill="#000"/>
    <path opacity=".12" d="M21.252 48.771a2.671 2.671 0 0 1-.614-1.87v.2c-.042.68.178 1.347.614 1.87l.094-.093-.094-.107zM50.054 34.05l-6.68 3.781.121.12 6.56-3.714a2.34 2.34 0 0 0 1.335-1.923 2.485 2.485 0 0 1-1.336 1.736z" fill="#000"/>
    <path opacity=".25" d="m24.018 15.774 26.037 14.802c.69.34 1.183.982 1.336 1.736a2.339 2.339 0 0 0-1.336-1.923L24.018 15.587c-1.87-1.055-3.393-.174-3.393 1.964v.2c.04-2.15 1.536-3.032 3.393-1.977z" fill="#fff"/>
    <defs>
        <linearGradient id="45jxjuz63a" x1="31.17" y1="17.23" x2="16.981" y2="31.419" gradientUnits="userSpaceOnUse">
            <stop stop-color="#00A0FF"/>
            <stop offset=".01" stop-color="#00A1FF"/>
            <stop offset=".26" stop-color="#00BEFF"/>
            <stop offset=".51" stop-color="#00D2FF"/>
            <stop offset=".76" stop-color="#00DFFF"/>
            <stop offset="1" stop-color="#00E3FF"/>
        </linearGradient>
        <linearGradient id="f4uwifoecb" x1="52.5" y1="32.313" x2="20.184" y2="32.313" gradientUnits="userSpaceOnUse">
            <stop stop-color="#FFE000"/>
            <stop offset=".41" stop-color="#FFBD00"/>
            <stop offset=".78" stop-color="orange"/>
            <stop offset="1" stop-color="#FF9C00"/>
        </linearGradient>
        <linearGradient id="c60tp23lqc" x1="40.477" y1="37.626" x2="16.238" y2="61.854" gradientUnits="userSpaceOnUse">
            <stop stop-color="#FF3A44"/>
            <stop offset="1" stop-color="#C31162"/>
        </linearGradient>
        <linearGradient id="zr384lol2d" x1="17.057" y1="13.091" x2="27.876" y2="23.911" gradientUnits="userSpaceOnUse">
            <stop stop-color="#32A071"/>
            <stop offset=".07" stop-color="#2DA771"/>
            <stop offset=".48" stop-color="#15CF74"/>
            <stop offset=".8" stop-color="#06E775"/>
            <stop offset="1" stop-color="#00F076"/>
        </linearGradient>
    </defs>
</svg>
