<svg width="220" height="66" viewBox="0 0 220 66" fill="none" xmlns="http://www.w3.org/2000/svg">
    <rect x=".5" y=".5" width="219" height="65" rx="7.5" fill="#000" stroke="#A6A6A6"/>
    <path d="M86.025 43.114h-7.378l-1.772 5.224H73.75l6.988-19.33h3.248l6.988 19.33h-3.178l-1.77-5.224zm-6.614-2.411h5.848l-2.884-8.48h-.08l-2.885 8.48zm26.655.59c0 4.38-2.346 7.193-5.889 7.193a4.788 4.788 0 0 1-4.44-2.465h-.067V53h-2.897V34.245h2.803v2.344h.054a5.003 5.003 0 0 1 4.494-2.49c3.581 0 5.942 2.826 5.942 7.194zm-2.978 0c0-2.854-1.475-4.73-3.728-4.73-2.214 0-3.702 1.916-3.702 4.73 0 2.84 1.488 4.741 3.702 4.741 2.253 0 3.728-1.863 3.728-4.741zm18.511 0c0 4.38-2.348 7.193-5.89 7.193a4.786 4.786 0 0 1-4.44-2.465h-.067V53h-2.897V34.245h2.804v2.344h.054a5 5 0 0 1 4.494-2.49c3.581 0 5.942 2.826 5.942 7.194zm-2.978 0c0-2.854-1.475-4.73-3.728-4.73-2.214 0-3.702 1.916-3.702 4.73 0 2.84 1.488 4.741 3.702 4.741 2.253 0 3.728-1.863 3.728-4.741zm13.245 1.66c.214 1.916 2.078 3.174 4.626 3.174 2.442 0 4.199-1.258 4.199-2.986 0-1.5-1.06-2.4-3.569-3.014l-2.507-.604c-3.554-.857-5.205-2.517-5.205-5.212 0-3.333 2.911-5.625 7.045-5.625 4.089 0 6.893 2.29 6.988 5.625h-2.925c-.174-1.928-1.772-3.092-4.105-3.092-2.334 0-3.93 1.178-3.93 2.893 0 1.366 1.019 2.17 3.515 2.786l2.132.523c3.971.938 5.622 2.53 5.622 5.357 0 3.618-2.885 5.883-7.473 5.883-4.293 0-7.191-2.212-7.378-5.708h2.965zm18.136-12.043v3.334h2.683v2.292h-2.683v7.77c0 1.207.537 1.768 1.717 1.768.319-.005.636-.027.953-.066v2.277c-.53.1-1.069.144-1.609.133-2.858 0-3.971-1.071-3.971-3.804v-8.078h-2.052v-2.292h2.052V30.91h2.91zm4.238 10.383c0-4.435 2.615-7.222 6.694-7.222 4.091 0 6.695 2.787 6.695 7.222 0 4.445-2.591 7.22-6.695 7.22-4.105 0-6.694-2.775-6.694-7.22zm10.436 0c0-3.042-1.395-4.839-3.742-4.839-2.348 0-3.741 1.81-3.741 4.839 0 3.053 1.393 4.834 3.741 4.834 2.347 0 3.742-1.78 3.742-4.834zm5.34-7.048h2.763v2.4h.067a3.367 3.367 0 0 1 3.395-2.548c.333 0 .666.035.992.108v2.706a4.054 4.054 0 0 0-1.302-.174 2.92 2.92 0 0 0-2.256.928 2.92 2.92 0 0 0-.762 2.314v8.359h-2.897V34.245zm20.573 9.954c-.39 2.559-2.884 4.314-6.077 4.314-4.104 0-6.653-2.747-6.653-7.154 0-4.42 2.562-7.288 6.531-7.288 3.905 0 6.36 2.68 6.36 6.953v.99h-9.967v.175a3.672 3.672 0 0 0 3.797 3.993 3.196 3.196 0 0 0 3.259-1.983h2.75zm-9.793-4.206h7.056a3.388 3.388 0 0 0-.948-2.544 3.398 3.398 0 0 0-2.514-1.034 3.578 3.578 0 0 0-2.543 1.042 3.563 3.563 0 0 0-1.051 2.536zM79.047 14.458a4.115 4.115 0 0 1 4.378 4.615c0 2.968-1.607 4.673-4.378 4.673h-3.359v-9.288h3.36zm-1.915 7.975h1.754a2.922 2.922 0 0 0 3.068-3.341 2.927 2.927 0 0 0-.75-2.382 2.935 2.935 0 0 0-2.318-.94h-1.754v6.663zm7.924-2.195a3.32 3.32 0 0 1 1.556-3.138 3.33 3.33 0 0 1 3.508 0 3.318 3.318 0 0 1 1.556 3.14 3.318 3.318 0 0 1-1.555 3.141 3.33 3.33 0 0 1-3.51 0 3.317 3.317 0 0 1-1.555-3.143zm5.196 0c0-1.519-.685-2.407-1.883-2.407-1.205 0-1.883.888-1.883 2.407 0 1.53.678 2.413 1.882 2.413 1.2 0 1.884-.887 1.884-2.413zm10.223 3.508H99.04l-1.452-5.163h-.109l-1.445 5.163H94.61l-1.935-7.009h1.405l1.258 5.348h.104l1.442-5.348h1.33l1.441 5.348h.11l1.252-5.348h1.386l-1.929 7.009zm3.555-7.009h1.334v1.113h.104c.36-.82 1.2-1.32 2.094-1.25a2.285 2.285 0 0 1 2.429 2.608v4.538h-1.385v-4.19c0-1.126-.489-1.687-1.514-1.687a1.612 1.612 0 0 0-1.247.504c-.322.341-.48.807-.429 1.272v4.1h-1.386v-7.008zM112.199 14h1.385v9.746h-1.385V14zm3.31 6.24a3.32 3.32 0 0 1 1.557-3.14 3.331 3.331 0 0 1 3.508 0 3.318 3.318 0 0 1 1.556 3.14 3.32 3.32 0 0 1-1.555 3.141 3.33 3.33 0 0 1-3.51 0 3.321 3.321 0 0 1-1.556-3.143v.002zm5.196 0c0-1.52-.683-2.41-1.884-2.41-1.204 0-1.881.89-1.881 2.408 0 1.53.677 2.413 1.881 2.413 1.201 0 1.884-.887 1.884-2.413v.002zm2.884 1.524c0-1.261.94-1.989 2.61-2.093l1.902-.109v-.605c0-.74-.491-1.159-1.438-1.159-.773 0-1.309.284-1.462.779h-1.341c.142-1.203 1.276-1.975 2.867-1.975 1.76 0 2.754.875 2.754 2.355v4.789h-1.334v-.986h-.111a2.361 2.361 0 0 1-2.108 1.102 2.132 2.132 0 0 1-1.637-.531 2.112 2.112 0 0 1-.702-1.567zm4.512-.6v-.585l-1.715.11c-.966.064-1.405.392-1.405 1.011 0 .63.548.998 1.302.998a1.655 1.655 0 0 0 1.818-1.533zm3.199-.926c0-2.214 1.141-3.618 2.914-3.618a2.313 2.313 0 0 1 2.152 1.23h.104V14h1.385v9.746h-1.328v-1.107h-.109a2.436 2.436 0 0 1-2.204 1.222c-1.786 0-2.914-1.402-2.914-3.623zm1.431 0c0 1.487.701 2.382 1.875 2.382 1.168 0 1.889-.908 1.889-2.375 0-1.461-.727-2.382-1.889-2.382-1.166 0-1.875.9-1.875 2.375zm10.855 0a3.32 3.32 0 0 1 1.556-3.138 3.33 3.33 0 0 1 3.507 0 3.318 3.318 0 0 1 1.557 3.14 3.32 3.32 0 0 1-1.555 3.141 3.33 3.33 0 0 1-3.51 0 3.322 3.322 0 0 1-1.555-3.143zm5.196 0c0-1.519-.685-2.407-1.884-2.407-1.204 0-1.881.888-1.881 2.407 0 1.53.677 2.413 1.881 2.413 1.199 0 1.884-.887 1.884-2.413zm3.282-3.502h1.334v1.115h.104a2.1 2.1 0 0 1 2.094-1.25 2.281 2.281 0 0 1 2.429 2.607v4.538h-1.384v-4.19c0-1.126-.49-1.687-1.515-1.687a1.606 1.606 0 0 0-1.676 1.776v4.1h-1.386v-7.009zm13.789-1.745v1.777h1.52v1.166h-1.52v3.604c0 .734.302 1.056.992 1.056.177 0 .354-.012.529-.033v1.154a4.59 4.59 0 0 1-.753.07c-1.541 0-2.154-.541-2.154-1.893v-3.958h-1.115v-1.166h1.115v-1.777h1.386zm3.413-.991h1.373v3.863h.11a2.162 2.162 0 0 1 2.14-1.256 2.31 2.31 0 0 1 2.416 2.614v4.525h-1.386v-4.184c0-1.12-.522-1.686-1.5-1.686a1.636 1.636 0 0 0-1.768 1.776v4.094h-1.385V14zm14.116 7.853a2.848 2.848 0 0 1-3.039 2.029 3.188 3.188 0 0 1-3.244-3.618 3.239 3.239 0 0 1 3.237-3.663c1.953 0 3.131 1.333 3.131 3.533v.484h-4.957v.078a1.859 1.859 0 0 0 .49 1.417c.356.381.857.596 1.379.59a1.684 1.684 0 0 0 1.671-.85h1.332zm-4.871-2.258h3.545a1.693 1.693 0 0 0-1.728-1.816 1.792 1.792 0 0 0-1.817 1.816zM52.047 25.621a8.413 8.413 0 0 0-3.99 7.055A8.126 8.126 0 0 0 53 40.15a18.66 18.66 0 0 1-2.571 5.255c-1.516 2.272-3.103 4.493-5.623 4.535-2.449.057-3.273-1.447-6.08-1.447-2.836 0-3.713 1.405-6.062 1.504-2.4.089-4.234-2.427-5.805-4.68-3.137-4.597-5.578-12.958-2.304-18.647a8.999 8.999 0 0 1 7.575-4.636c2.401-.05 4.632 1.628 6.11 1.628 1.449 0 4.205-2.006 7.048-1.707a8.573 8.573 0 0 1 6.76 3.665zM45.318 13a8.298 8.298 0 0 1-1.887 5.931 6.937 6.937 0 0 1-5.48 2.601 7.89 7.89 0 0 1 1.935-5.712A8.391 8.391 0 0 1 45.319 13z" fill="#fff"/>
</svg>
