<svg width="156" height="34" viewBox="0 0 156 34" fill="none" xmlns="http://www.w3.org/2000/svg">
    <path d="M28 9.25c-.9.45-1.8.6-2.85.75 1.05-.6 1.8-1.5 2.1-2.7-.9.6-1.95.9-3.15 1.2-.9-.9-2.25-1.5-3.6-1.5-3.15 0-5.55 3-4.8 6-4.05-.15-7.65-2.1-10.2-5.1-1.35 2.25-.6 5.1 1.5 6.6-.75 0-1.5-.3-2.25-.6 0 2.25 1.65 4.35 3.9 4.95-.75.15-1.5.3-2.25.15.6 1.95 2.4 3.45 4.65 3.45-1.8 1.35-4.5 2.1-7.05 1.8 2.25 1.35 4.8 2.25 7.5 2.25 9.15 0 14.25-7.65 13.95-14.7 1.05-.6 1.95-1.5 2.55-2.55zM56 25h-8v-2h2V9h-4v2h-2V7h16v4h-2V9h-4v14h2v2zm6-2h-2V13h4v8h2v-2h2v2h2v-8h4v10h-2v2h-4v-2h-2v2h-4v-2zm26 2h-8v-2h2v-8h-2v-2h6v10h2v2zM82 7h4v4h-4V7zm24 16h-2v2h-6v-2h-2v-8h-4v-2h4V9h2V7h2v6h4v2h-4v8h2v-2h4v2zm16 0h-2v2h-6v-2h-2v-8h-4v-2h4V9h2V7h2v6h4v2h-4v8h2v-2h4v2zm16 0h-2v2h-10v-2h-2v-8h2v-2h10v2h2v4h-10v4h6v-2h4v2zm-10-6h6v-2h-6v2zm20 8h-8v-2h2v-8h-2v-2h4v2h2v-2h6v2h2v4h-4v-4h-2v2h-2v6h2v2z" fill="#fff"/>
</svg>
