<svg width="210" height="72" viewBox="0 0 210 72" fill="none" xmlns="http://www.w3.org/2000/svg">
    <g clip-path="url(#nx78ixcaqa)" fill="#fff">
        <path d="M34.28 11.582v5.886l-1.857 1.856 1.857 1.855v6.097c0 .451-.06.852-.17 1.193.693-.07 1.406-.11 2.129-.11 1.094 0 2.148.08 3.173.25-.181-.44-.271-.972-.271-1.624v-7.12c1.415 0 2.35.12 2.821.381.472.25.924.682 1.366 1.304l6.708 9.446c2.34.24 4.307 1.234 5.904 2.968l1.085.1-9.34-13.647c-.582-.722-1.114-1.144-1.616-1.264v-.08c1.436-.441 2.54-1.133 3.304-2.086.773-.952 1.155-2.096 1.155-3.43 0-1.845-.733-3.279-2.22-4.291-1.476-1.023-3.594-1.525-6.346-1.525H31.47v.672c1.094.22 1.827.532 2.219.953.381.411.582 1.153.582 2.226l.01-.01zm4.86-2.537h1.507c3.072 0 4.599 1.524 4.599 4.583 0 1.715-.402 2.968-1.205 3.76-.803.792-2.079 1.194-3.836 1.194-.331 0-.683-.01-1.064-.04V9.044zM28.74 25.551v-1.584c-1.497 1.674-2.973 2.888-4.43 3.65-1.455.752-3.042 1.133-4.79 1.133-3.223 0-5.753-1.213-7.58-3.65-1.838-2.427-2.752-5.867-2.752-10.309 0-3.991.783-7.17 2.36-9.536 1.566-2.367 3.685-3.55 6.356-3.55 2.44 0 4.509.842 6.226 2.517 1.707 1.674 2.892 4.03 3.545 7.07h.793V.25h-.793c-.472 1.043-1.075 1.564-1.768 1.564-.351 0-1.014-.18-1.988-.551C21.65.42 19.621 0 17.814 0 13.405 0 9.72 1.554 6.758 4.663c-2.42 2.547-3.846 5.595-4.288 9.145L0 16.275l2.47 2.467c.412 3.45 1.737 6.338 3.977 8.664 2.741 2.858 6.306 4.292 10.694 4.292 4.9 0 8.766-2.046 11.608-6.137l-.01-.01zM69.065 8.413c1.155.301 1.908.652 2.26 1.063.351.411.532 1.143.532 2.186v14.49c-1.958 2.136-3.856 3.21-5.674 3.21-1.285 0-2.3-.402-3.032-1.214-.733-.802-1.105-1.915-1.105-3.34V11.854c0-1.163.191-1.956.563-2.387.371-.43 1.114-.782 2.239-1.053v-.672H54.395v.672c1.144.281 1.887.632 2.249 1.053.361.421.542 1.153.542 2.196v5.806l-1.858 1.856 1.858 1.855v2.637c0 2.347.683 4.222 2.049 5.606 1.365 1.393 3.203 2.085 5.512 2.085 1.386 0 2.581-.26 3.585-.782.994-.521 2.17-1.494 3.525-2.908v3.099h7.621v-.682c-1.134-.3-1.877-.652-2.229-1.063-.351-.411-.532-1.143-.532-2.186V12.124c0-1.354.2-2.257.582-2.698.392-.441 1.115-.782 2.18-1.013v-.672H69.064v.672zM208.705 20.918a9.984 9.984 0 0 0-1.777-1.875c-.622-.491-1.998-1.354-4.127-2.607-2.099-1.244-3.334-2.056-3.715-2.417a4.01 4.01 0 0 1-.884-1.173 2.911 2.911 0 0 1-.301-1.264c0-.882.381-1.614 1.165-2.226.773-.602 1.717-.912 2.821-.912 1.225 0 2.42.46 3.565 1.383 1.155.923 1.968 2.056 2.43 3.42h.713V7.13h-.713c-.442.431-.864.642-1.255.642-.392 0-1.095-.1-2.059-.311-.974-.22-1.797-.331-2.48-.331-2.239 0-4.067.632-5.493 1.905-1.416 1.264-2.129 2.888-2.129 4.874 0 .932.181 1.815.533 2.647a6.881 6.881 0 0 0 1.586 2.256c.703.672 2.129 1.625 4.288 2.858 2.35 1.334 3.796 2.347 4.338 3.039.542.692.813 1.424.813 2.196 0 .953-.421 1.745-1.265 2.356-.843.622-1.908.923-3.213.923-1.677 0-3.083-.521-4.228-1.554-1.144-1.043-1.898-2.457-2.269-4.262h-.713v6.98h.713c.251-.502.663-.753 1.235-.753.331 0 .934.1 1.777.31 1.607.402 2.993.603 4.148.603 2.158 0 3.996-.612 5.512-1.815 1.517-1.214 2.28-2.858 2.28-4.924 0-1.394-.432-2.678-1.296-3.85zM162.211 29.592h-1.285c-1.105 0-2.872-.21-3.324-.642-.452-.42-.683-1.163-.683-2.206v-6.809h4.87c1.778 0 2.802.983 3.053 2.959h.723v-7.18h-.723c-.221 1.053-.563 1.795-1.024 2.236-.472.441-1.145.662-2.029.662h-4.87V9.045h5.262c1.205 0 2.078.26 2.621.782.542.522 1.004 1.545 1.365 3.049h.643V7.73h-17.523v.682c1.085.221 1.818.532 2.189.953.382.421.563 1.173.563 2.256v5.846l-1.858 1.856 1.858 1.855v5.345c0 1.313-.181 2.206-.553 2.657-.361.461-1.104.812-2.209 1.053v.682h17.774l.402-5.636h-.643c-.934 2.878-2.47 4.312-4.629 4.312h.03z"/>
        <path d="M184.636 19.153v-.08c1.436-.441 2.54-1.133 3.303-2.086.774-.952 1.155-2.096 1.155-3.43 0-1.845-.743-3.279-2.219-4.291-1.476-1.013-3.595-1.525-6.346-1.525h-10.494v.672c1.095.22 1.828.542 2.219.953.382.411.583 1.153.583 2.226v5.886l-1.858 1.856 1.858 1.855v6.097c0 1.815-.934 2.807-2.792 2.958v.682h10.494v-.682c-1.035-.15-1.758-.481-2.189-.973-.432-.501-.643-1.253-.643-2.276v-7.12c1.416 0 2.35.12 2.832.381.472.25.923.682 1.355 1.304l6.708 9.446c2.35.24 4.308 1.233 5.905 2.968l1.084.1-9.339-13.647c-.572-.722-1.114-1.143-1.606-1.264l-.01-.01zm-2.029-1.755c-.803.793-2.078 1.194-3.836 1.194-.331 0-.682-.01-1.074-.04V9.055h1.506c3.063 0 4.599 1.524 4.599 4.583 0 1.715-.401 2.968-1.205 3.76h.01zM105.618 30.234c-1.476-.411-2.209-1.123-2.209-2.146 0-.471.14-1.113.421-1.895l1.085-3.079h7.873l1.275 3.56c.281.802.422 1.394.422 1.785 0 .471-.191.842-.563 1.113-.371.26-1.014.482-1.918.662v.682h10.805v-.682c-.944-.08-1.717-.441-2.31-1.093-.592-.652-1.194-1.805-1.807-3.45L111.994 7.14h-3.012l-6.347 17.84c-.622 1.774-1.255 3.058-1.897 3.85-.643.782-1.386 1.254-2.25 1.414v.682h7.12v-.682l.01-.01zm3.213-18.19 3.354 9.406h-6.567l3.213-9.406zM84.438 30.605c.331 0 .934.1 1.777.311 1.607.401 2.993.602 4.148.602 2.159 0 3.996-.612 5.512-1.815 1.517-1.214 2.28-2.858 2.28-4.924 0-1.394-.432-2.677-1.296-3.85-.562-.763-1.154-1.385-1.777-1.876-.622-.491-1.998-1.354-4.137-2.607-2.089-1.244-3.334-2.056-3.715-2.417a4.013 4.013 0 0 1-.884-1.173 2.914 2.914 0 0 1-.301-1.264c0-.882.391-1.614 1.165-2.226.773-.602 1.717-.912 2.821-.912 1.225 0 2.41.46 3.565 1.383 1.155.923 1.968 2.056 2.44 3.42h.703V7.13h-.703c-.442.431-.864.642-1.255.642-.392 0-1.095-.1-2.059-.311-.974-.22-1.797-.331-2.49-.331-2.24 0-4.067.632-5.493 1.905-1.416 1.264-2.129 2.888-2.129 4.884 0 .932.181 1.805.533 2.637a6.892 6.892 0 0 0 1.586 2.256c.703.672 2.13 1.625 4.298 2.858 2.35 1.334 3.796 2.347 4.338 3.039.542.692.813 1.424.813 2.196 0 .953-.421 1.745-1.265 2.356-.843.622-1.918.923-3.213.923-1.677 0-3.083-.521-4.228-1.554-1.144-1.043-1.908-2.457-2.27-4.262H82.5v6.98h.713c.261-.502.673-.753 1.235-.753l-.01.01zM134.226 7.731h-11.277v.682c1.165.321 1.918.692 2.27 1.103.351.412.522 1.144.522 2.187v5.765l-1.858 1.856 1.858 1.855v5.305c0 .902-.081 1.594-.231 2.075.08-.02.171-.04.261-.04h5.071c.07 0 .13.02.191.03-.281-.41-.422-.972-.422-1.674V9.045h2.872c2.761 0 4.91.923 6.447 2.778 1.536 1.855 2.299 4.372 2.299 7.55 0 3.18-.703 5.767-2.099 7.542-1.395 1.785-3.374 2.667-5.924 2.667-.994 0-1.778-.12-2.33-.37.131.32.111.691-.08.992l-.422.692h4.338c3.615 0 6.487-1.023 8.616-3.079 2.129-2.045 3.183-4.793 3.183-8.223 0-3.43-1.185-6.427-3.565-8.614-2.37-2.176-5.613-3.269-9.71-3.269l-.01.02zM124.807 30.224a1.092 1.092 0 0 1-.151-.662c-.411.24-.984.461-1.707.672v.682h2.29l-.422-.692h-.01z"/>
        <path d="m137.841 38.527-.05-1.314h-6.949l-.974-1.183v-4.813l.974-1.575h-5.071l.974 1.575v4.813l-.974 1.183h-6.959l-.05 1.314-.071 1.765h.392c.201-.702.542-1.344.974-1.765h6.206l-.492 21.49 2.54 3.118 2.541-3.118-.492-21.49h6.205c.432.421.774 1.063.974 1.765h.392l-.07-1.765h-.02zM69.067 37.885c1.155.301 1.908.652 2.26 1.063.36.411.532 1.143.532 2.186v14.49c-1.959 2.146-3.856 3.21-5.664 3.21-1.285 0-2.3-.402-3.032-1.214-.733-.802-1.105-1.915-1.105-3.34V41.326c0-1.163.19-1.956.562-2.387.372-.431 1.115-.782 2.24-1.053v-.672H54.406v.672c1.145.281 1.898.632 2.25 1.053.361.421.542 1.153.542 2.196v5.806l-1.858 1.856 1.858 1.855v2.637c0 2.347.683 4.222 2.048 5.606 1.366 1.394 3.204 2.085 5.513 2.085 1.386 0 2.58-.26 3.575-.782 1.004-.521 2.179-1.494 3.525-2.908v3.099h7.621v-.682c-1.135-.291-1.878-.652-2.23-1.063-.35-.411-.531-1.143-.531-2.186V41.596c0-1.354.2-2.257.582-2.698.392-.441 1.115-.782 2.18-1.013v-.672H69.066v.672zM94.822 59.074h-1.285c-1.105 0-2.872-.21-3.324-.642-.452-.43-.683-1.163-.683-2.206v-6.809h4.87c1.778 0 2.792.983 3.053 2.959h.713v-7.18h-.713c-.221 1.053-.563 1.795-1.034 2.236-.462.441-1.145.662-2.029.662h-4.87v-9.577h5.262c1.205 0 2.078.26 2.62.782.543.522 1.005 1.544 1.376 3.049h.643v-5.145H81.898v.672c1.085.22 1.818.542 2.19.953.381.421.562 1.173.562 2.256v5.846l-1.858 1.855 1.858 1.856v5.345c0 1.313-.18 2.206-.542 2.657-.362.461-1.105.812-2.21 1.053v.682h17.774l.402-5.636h-.643c-.934 2.878-2.47 4.312-4.63 4.312l.021.02zM115.721 48.515c-.623-.492-1.998-1.354-4.127-2.608-2.099-1.243-3.334-2.045-3.715-2.406a4.01 4.01 0 0 1-.884-1.173 2.911 2.911 0 0 1-.301-1.264c0-.883.391-1.614 1.165-2.226.773-.612 1.717-.913 2.821-.913 1.225 0 2.41.462 3.565 1.384 1.155.923 1.968 2.066 2.43 3.41h.713v-6.117h-.713c-.442.43-.864.641-1.255.641-.392 0-1.095-.1-2.059-.31-.974-.221-1.797-.331-2.49-.331-2.239 0-4.067.631-5.493 1.895-1.426 1.263-2.129 2.888-2.129 4.883 0 .933.181 1.815.533 2.648.351.832.883 1.584 1.586 2.256.703.672 2.129 1.624 4.298 2.858 2.35 1.334 3.796 2.346 4.338 3.038.542.692.813 1.424.813 2.197 0 .952-.421 1.744-1.265 2.356-.843.622-1.918.923-3.213.923-1.677 0-3.083-.522-4.228-1.555-1.144-1.043-1.898-2.456-2.269-4.262h-.713v6.98h.713c.261-.502.673-.752 1.235-.752.341 0 .934.1 1.787.31 1.607.402 2.993.602 4.148.602 2.159 0 3.996-.611 5.512-1.825 1.517-1.213 2.28-2.848 2.28-4.924 0-1.393-.432-2.677-1.296-3.85-.562-.762-1.154-1.384-1.777-1.875l-.01.01zM47.657 67.347l-6.607-6.859c3.364-1.023 6.015-2.898 7.943-5.636 1.506-2.125 2.41-4.522 2.741-7.2v.11l2.47-2.466-2.47-2.467c-.442-3.49-1.857-6.458-4.267-8.885-2.943-2.978-6.688-4.462-11.237-4.462s-8.254 1.494-11.186 4.462c-2.39 2.427-3.796 5.395-4.238 8.895l-2.47 2.467 2.47 2.467v-.18c.18 1.363.522 2.707 1.024 4 .784 2.026 1.858 3.73 3.244 5.115 1.375 1.393 3.193 2.537 5.442 3.42 1.738.681 3.003 1.463 3.806 2.316l3.826 4.08c1.848 1.966 3.675 3.37 5.463 4.213 1.797.842 3.866 1.263 6.205 1.263 1.707 0 3.284-.21 4.74-.632v-.932c-1.576-.02-2.832-.22-3.745-.622-.914-.391-1.969-1.223-3.174-2.487l.02.02zM36.24 59.455c-2.812 0-4.96-1.213-6.457-3.63-1.496-2.427-2.249-5.816-2.249-10.168 0-4.663.743-8.233 2.24-10.73 1.495-2.487 3.644-3.74 6.476-3.74s4.95 1.233 6.487 3.7c1.536 2.457 2.3 5.936 2.3 10.409 0 4.472-.764 7.992-2.3 10.459-1.526 2.467-3.695 3.7-6.487 3.7h-.01z"/>
    </g>
    <defs>
        <clipPath id="nx78ixcaqa">
            <path fill="#fff" d="M0 0h210v72H0z"/>
        </clipPath>
    </defs>
</svg>
